<?xml version="1.0" encoding="UTF-8" standalone="no"?>
<svg width="24px" height="24px" viewBox="0 0 24 24" version="1.1" xmlns="http://www.w3.org/2000/svg" xmlns:xlink="http://www.w3.org/1999/xlink" xmlns:sketch="http://www.bohemiancoding.com/sketch/ns">
    <!-- Generator: bin/sketchtool 1.4 (305) - http://www.bohemiancoding.com/sketch -->
    <title>ic_git</title>
    <desc>Created with bin/sketchtool.</desc>
    <defs></defs>
    <g id="Page-1" stroke="none" stroke-width="1" fill="none" fill-rule="evenodd" sketch:type="MSPage">
        <g id="Desktop-HD" sketch:type="MSArtboardGroup" transform="translate(-444.000000, -224.000000)">
            <g id="Rectangle-3-Copy-2-+-Código-fonte-desta-p-+-1437595436_github_rounded" sketch:type="MSLayerGroup" transform="translate(440.000000, 224.000000)">
                <g id="git" transform="translate(4.000000, 0.000000)" sketch:type="MSShapeGroup">
                    <g id="Group">
                        <path d="M12.108864,4.293216 C7.756544,4.293216 4.227264,7.82176 4.227264,12.174784 C4.227264,15.657056 6.4856,18.611392 9.617184,19.6536 C10.01104,19.726528 10.155712,19.48256 10.155712,19.274432 C10.155712,19.086592 10.148448,18.4656 10.145024,17.807008 C7.952352,18.28384 7.489696,16.877088 7.489696,16.877088 C7.131136,15.966144 6.614592,15.72384 6.614592,15.72384 C5.899424,15.234656 6.668512,15.244736 6.668512,15.244736 C7.459872,15.30032 7.876672,16.057056 7.876672,16.057056 C8.579616,17.261888 9.720448,16.913536 10.170272,16.71216 C10.241024,16.202816 10.445184,15.855008 10.670656,15.658208 C8.920032,15.458976 7.07968,14.783104 7.07968,11.763104 C7.07968,10.902688 7.387616,10.199552 7.89184,9.647584 C7.810016,9.448992 7.540192,8.647424 7.968192,7.561728 C7.968192,7.561728 8.63008,7.350016 10.136096,8.369728 C10.764832,8.195072 11.439104,8.107488 12.108896,8.104448 C12.778656,8.107488 13.45344,8.195072 14.083296,8.369728 C15.58768,7.350016 16.248576,7.561728 16.248576,7.561728 C16.677568,8.647424 16.407744,9.448992 16.32592,9.647584 C16.831296,10.199552 17.137056,10.902656 17.137056,11.763104 C17.137056,14.790368 15.29328,15.4568 13.538176,15.651968 C13.820864,15.896576 14.072704,16.376192 14.072704,17.111488 C14.072704,18.166048 14.06368,19.014816 14.06368,19.274432 C14.06368,19.484224 14.205504,19.729984 14.60496,19.652608 C17.734944,18.609248 19.990432,15.655936 19.990432,12.174784 C19.990432,7.82176 16.461632,4.293216 12.108864,4.293216 L12.108864,4.293216 Z" id="Shape" fill="#297AEA"></path>
                        <path id="Shape" fill="#000000" d="M7.212448,15.609376 C7.195104,15.64864 7.13344,15.660352 7.077344,15.633472 C7.020128,15.607744 6.988128,15.554336 7.006592,15.515072 C7.023552,15.474752 7.085216,15.463552 7.142336,15.490464 C7.199584,15.516224 7.232224,15.570112 7.212448,15.609376 L7.212448,15.609376 L7.212448,15.609376 Z"></path>
                        <path id="Shape" fill="#000000" d="M7.531712,15.965504 C7.494144,16.000256 7.420576,15.984096 7.37072,15.929056 C7.319104,15.87408 7.309536,15.800544 7.34768,15.76528 C7.386432,15.730464 7.457696,15.746752 7.50928,15.801728 C7.560928,15.857312 7.570976,15.930208 7.531712,15.965504 L7.531712,15.965504 L7.531712,15.965504 Z"></path>
                        <path id="Shape" fill="#000000" d="M7.842496,16.41936 C7.794176,16.452992 7.715168,16.421504 7.666336,16.351424 C7.618016,16.281312 7.618016,16.197216 7.667456,16.16352 C7.716288,16.129888 7.794176,16.160192 7.843616,16.229696 C7.891808,16.300992 7.891808,16.385088 7.842496,16.41936 L7.842496,16.41936 L7.842496,16.41936 Z"></path>
                        <path id="Shape" fill="#000000" d="M8.268192,16.857984 C8.22496,16.905632 8.132928,16.892736 8.065664,16.827744 C7.996704,16.764256 7.977568,16.674048 8.020768,16.626368 C8.06464,16.578688 8.157184,16.592064 8.22496,16.656576 C8.293408,16.720032 8.314176,16.810784 8.268192,16.857984 L8.268192,16.857984 L8.268192,16.857984 Z"></path>
                        <path id="Shape" fill="#000000" d="M8.85552,17.112608 C8.836416,17.174272 8.74784,17.202336 8.658592,17.176096 C8.569376,17.149056 8.511136,17.0768 8.529088,17.014464 C8.547552,16.952288 8.63664,16.923104 8.726496,16.951136 C8.815616,16.978016 8.873984,17.04976 8.85552,17.112608 L8.85552,17.112608 L8.85552,17.112608 Z"></path>
                        <path id="Shape" fill="#000000" d="M9.500576,17.159776 C9.50272,17.224768 9.427008,17.278688 9.333344,17.27984 C9.239136,17.281984 9.162784,17.229376 9.161792,17.165376 C9.161792,17.099712 9.235808,17.046432 9.330048,17.0448 C9.423712,17.043008 9.500576,17.095264 9.500576,17.159776 L9.500576,17.159776 L9.500576,17.159776 Z"></path>
                        <path id="Shape" fill="#000000" d="M10.100768,17.057664 C10.111968,17.121024 10.046816,17.186144 9.95376,17.203488 C9.862272,17.22032 9.777632,17.181056 9.76592,17.118208 C9.754592,17.053216 9.820832,16.988096 9.912256,16.971264 C10.00544,16.955072 10.088896,16.993152 10.100768,17.057664 L10.100768,17.057664 L10.100768,17.057664 Z"></path>
                    </g>
                </g>
            </g>
        </g>
    </g>
</svg>