<?xml version="1.0" encoding="UTF-8" standalone="no"?>
<svg width="24px" height="24px" viewBox="0 0 24 24" version="1.1" xmlns="http://www.w3.org/2000/svg" xmlns:xlink="http://www.w3.org/1999/xlink" xmlns:sketch="http://www.bohemiancoding.com/sketch/ns">
    <!-- Generator: bin/sketchtool 1.4 (305) - http://www.bohemiancoding.com/sketch -->
    <title>ic_pdf</title>
    <desc>Created with bin/sketchtool.</desc>
    <defs></defs>
    <g id="Page-1" stroke="none" stroke-width="1" fill="none" fill-rule="evenodd" sketch:type="MSPage">
        <g id="Desktop-HD" sketch:type="MSArtboardGroup" transform="translate(-1162.000000, -36.000000)">
            <g id="pdf" sketch:type="MSLayerGroup" transform="translate(1162.000000, 36.000000)">
                <g id="Group" sketch:type="MSShapeGroup">
                    <path d="M0,0 L24,0 L24,24 L0,24 L0,0 Z" id="Shape-Copy"></path>
                    <g id="1437595805_icon-5-file-pdf" transform="translate(0.000000, 5.000000)" fill="#297AEA">
                        <g id="Page-1">
                            <g id="icon-5-file-pdf">
                                <path d="M3.00684834,0 C1.34621185,0 0,1.3422643 0,2.9987856 L0,10.0012144 C0,11.6573979 1.33599155,13 3.00684834,13 L19.9931517,13 C21.6537881,13 23,11.6577357 23,10.0012144 L23,2.9987856 C23,1.3426021 21.6640085,0 19.9931517,0 L3.00684834,0 L3.00684834,0 Z M16,6 L16,4 L20,4 L20,3 L15,3 L15,10 L16,10 L16,7 L19,7 L19,6 L16,6 L16,6 Z M3,5 L3,10 L4,10 L4,7 L5.9951185,7 C7.102384,7 8,6.1122704 8,5 C8,3.8954305 7.1061002,3 5.9951185,3 L3,3 L3,5 L3,5 Z M4,4 L4,6 L6.0010434,6 C6.5527519,6 7,5.5561352 7,5 C7,4.4477153 6.5573397,4 6.0010434,4 L4,4 L4,4 Z M9,3 L9,10 L11.9951185,10 C13.102384,10 14,9.1134452 14,7.9940809 L14,5.0059191 C14,3.8980806 13.1061002,3 11.9951185,3 L9,3 L9,3 Z M10,4 L10,9 L12.0010434,9 C12.5527519,9 13,8.5562834 13,8.0001925 L13,4.9998075 C13,4.4476291 12.5573397,4 12.0010434,4 L10,4 L10,4 Z" id="file-pdf"></path>
                            </g>
                        </g>
                    </g>
                    <path id="Shape" fill="#000000" d="M6.212448,15.609376 C6.195104,15.64864 6.13344,15.660352 6.077344,15.633472 C6.020128,15.607744 5.988128,15.554336 6.006592,15.515072 C6.023552,15.474752 6.085216,15.463552 6.142336,15.490464 C6.199584,15.516224 6.232224,15.570112 6.212448,15.609376 L6.212448,15.609376 L6.212448,15.609376 Z"></path>
                    <path id="Shape" fill="#000000" d="M6.531712,15.965504 C6.494144,16.000256 6.420576,15.984096 6.37072,15.929056 C6.319104,15.87408 6.309536,15.800544 6.34768,15.76528 C6.386432,15.730464 6.457696,15.746752 6.50928,15.801728 C6.560928,15.857312 6.570976,15.930208 6.531712,15.965504 L6.531712,15.965504 L6.531712,15.965504 Z"></path>
                    <path id="Shape" fill="#000000" d="M6.842496,16.41936 C6.794176,16.452992 6.715168,16.421504 6.666336,16.351424 C6.618016,16.281312 6.618016,16.197216 6.667456,16.16352 C6.716288,16.129888 6.794176,16.160192 6.843616,16.229696 C6.891808,16.300992 6.891808,16.385088 6.842496,16.41936 L6.842496,16.41936 L6.842496,16.41936 Z"></path>
                    <path id="Shape" fill="#000000" d="M7.268192,16.857984 C7.22496,16.905632 7.132928,16.892736 7.065664,16.827744 C6.996704,16.764256 6.977568,16.674048 7.020768,16.626368 C7.06464,16.578688 7.157184,16.592064 7.22496,16.656576 C7.293408,16.720032 7.314176,16.810784 7.268192,16.857984 L7.268192,16.857984 L7.268192,16.857984 Z"></path>
                    <path id="Shape" fill="#000000" d="M7.85552,17.112608 C7.836416,17.174272 7.74784,17.202336 7.658592,17.176096 C7.569376,17.149056 7.511136,17.0768 7.529088,17.014464 C7.547552,16.952288 7.63664,16.923104 7.726496,16.951136 C7.815616,16.978016 7.873984,17.04976 7.85552,17.112608 L7.85552,17.112608 L7.85552,17.112608 Z"></path>
                    <path id="Shape" fill="#000000" d="M8.500576,17.159776 C8.50272,17.224768 8.427008,17.278688 8.333344,17.27984 C8.239136,17.281984 8.162784,17.229376 8.161792,17.165376 C8.161792,17.099712 8.235808,17.046432 8.330048,17.0448 C8.423712,17.043008 8.500576,17.095264 8.500576,17.159776 L8.500576,17.159776 L8.500576,17.159776 Z"></path>
                    <path id="Shape" fill="#000000" d="M9.100768,17.057664 C9.111968,17.121024 9.046816,17.186144 8.95376,17.203488 C8.862272,17.22032 8.777632,17.181056 8.76592,17.118208 C8.754592,17.053216 8.820832,16.988096 8.912256,16.971264 C9.00544,16.955072 9.088896,16.993152 9.100768,17.057664 L9.100768,17.057664 L9.100768,17.057664 Z"></path>
                </g>
            </g>
        </g>
    </g>
</svg>